<svg xmlns="http://www.w3.org/2000/svg" xmlns:xlink="http://www.w3.org/1999/xlink" version="1.1" id="Layer_1" x="0px" y="0px" width="56px" height="56px" viewBox="0 0 100 100" enable-background="new 0 0 100 100" xml:space="preserve">
<path fill="#fff" d="M90,2.577C90,1.154,88.846,0,87.422,0H12.578C11.154,0,10,1.154,10,2.577v94.846  c0,1.423,1.154,2.577,2.578,2.577h74.844C88.846,100,90,98.846,90,97.423V2.577z M51.055,3.012c0.593,0,1.073,0.481,1.073,1.073  c0,0.594-0.48,1.075-1.073,1.075S49.98,4.679,49.98,4.085C49.98,3.493,50.462,3.012,51.055,3.012z M51.071,95.21  c-1.897,0-3.436-1.539-3.436-3.439c0-1.896,1.539-3.436,3.436-3.436c1.898,0,3.437,1.539,3.437,3.436  C54.508,93.671,52.97,95.21,51.071,95.21z M83,84H18V8h65V84z"/>
</svg>